<svg id="Layer_1" data-name="Layer 1" xmlns="http://www.w3.org/2000/svg" viewBox="0 0 65 65"><defs><style>.cls-1,.cls-2{fill:#2e7795;}.cls-1{opacity:0.3;}</style></defs><polygon class="cls-1" points="2.6 13 0 13 0 65 52 65 52 62.4 2.6 62.4 2.6 13"/><rect class="cls-1" x="52" y="59.8" width="2.6" height="2.6"/><rect class="cls-1" x="2.6" y="10.4" width="2.6" height="2.6"/><polygon class="cls-1" points="5.2 59.8 5.2 13 2.6 13 2.6 62.4 52 62.4 52 59.8 5.2 59.8"/><polygon class="cls-1" points="5.2 59.8 5.2 13 2.6 13 2.6 62.4 52 62.4 52 59.8 5.2 59.8"/><rect class="cls-1" x="5.2" y="7.8" width="2.6" height="2.6"/><rect class="cls-1" x="54.6" y="57.2" width="2.6" height="2.6"/><rect class="cls-1" x="5.2" y="10.4" width="2.6" height="2.6"/><rect class="cls-1" x="5.2" y="10.4" width="2.6" height="2.6"/><rect class="cls-1" x="52" y="57.2" width="2.6" height="2.6"/><rect class="cls-1" x="52" y="57.2" width="2.6" height="2.6"/><polygon class="cls-1" points="7.8 13 5.2 13 5.2 59.8 52 59.8 52 57.2 7.8 57.2 7.8 13"/><polygon class="cls-1" points="7.8 13 5.2 13 5.2 59.8 52 59.8 52 57.2 7.8 57.2 7.8 13"/><polygon class="cls-1" points="7.8 13 5.2 13 5.2 59.8 52 59.8 52 57.2 7.8 57.2 7.8 13"/><rect class="cls-1" x="7.8" y="5.2" width="2.6" height="2.6"/><rect class="cls-1" x="57.2" y="54.6" width="2.6" height="2.6"/><rect class="cls-1" x="7.8" y="7.8" width="2.6" height="2.6"/><rect class="cls-1" x="7.8" y="7.8" width="2.6" height="2.6"/><rect class="cls-1" x="54.6" y="54.6" width="2.6" height="2.6"/><rect class="cls-1" x="54.6" y="54.6" width="2.6" height="2.6"/><rect class="cls-1" x="52" y="54.6" width="2.6" height="2.6"/><rect class="cls-1" x="52" y="54.6" width="2.6" height="2.6"/><rect class="cls-1" x="52" y="54.6" width="2.6" height="2.6"/><rect class="cls-1" x="7.8" y="10.4" width="2.6" height="2.6"/><rect class="cls-1" x="7.8" y="10.4" width="2.6" height="2.6"/><rect class="cls-1" x="7.8" y="10.4" width="2.6" height="2.6"/><polygon class="cls-1" points="10.4 54.6 10.4 13 7.8 13 7.8 57.2 52 57.2 52 54.6 10.4 54.6"/><polygon class="cls-1" points="10.4 54.6 10.4 13 7.8 13 7.8 57.2 52 57.2 52 54.6 10.4 54.6"/><polygon class="cls-1" points="10.4 54.6 10.4 13 7.8 13 7.8 57.2 52 57.2 52 54.6 10.4 54.6"/><polygon class="cls-1" points="10.4 54.6 10.4 13 7.8 13 7.8 57.2 52 57.2 52 54.6 10.4 54.6"/><rect class="cls-1" x="10.4" y="2.6" width="2.6" height="2.6"/><rect class="cls-1" x="59.8" y="52" width="2.6" height="2.6"/><rect class="cls-1" x="57.2" y="52" width="2.6" height="2.6"/><rect class="cls-1" x="57.2" y="52" width="2.6" height="2.6"/><rect class="cls-1" x="10.4" y="5.2" width="2.6" height="2.6"/><rect class="cls-1" x="10.4" y="5.2" width="2.6" height="2.6"/><rect class="cls-1" x="10.4" y="7.8" width="2.6" height="2.6"/><rect class="cls-1" x="10.4" y="7.8" width="2.6" height="2.6"/><rect class="cls-1" x="10.4" y="7.8" width="2.6" height="2.6"/><rect class="cls-1" x="54.6" y="52" width="2.6" height="2.6"/><rect class="cls-1" x="54.6" y="52" width="2.6" height="2.6"/><rect class="cls-1" x="54.6" y="52" width="2.6" height="2.6"/><rect class="cls-1" x="52" y="52" width="2.6" height="2.6"/><rect class="cls-1" x="52" y="52" width="2.6" height="2.6"/><rect class="cls-1" x="52" y="52" width="2.6" height="2.6"/><rect class="cls-1" x="52" y="52" width="2.6" height="2.6"/><rect class="cls-1" x="10.4" y="10.4" width="2.6" height="2.6"/><rect class="cls-1" x="10.4" y="10.4" width="2.6" height="2.6"/><rect class="cls-1" x="10.4" y="10.4" width="2.6" height="2.6"/><rect class="cls-1" x="10.4" y="10.4" width="2.6" height="2.6"/><polygon class="cls-1" points="13 13 10.4 13 10.4 54.6 52 54.6 52 52 13 52 13 13"/><polygon class="cls-1" points="13 13 10.4 13 10.4 54.6 52 54.6 52 52 13 52 13 13"/><polygon class="cls-1" points="13 13 10.4 13 10.4 54.6 52 54.6 52 52 13 52 13 13"/><polygon class="cls-1" points="13 13 10.4 13 10.4 54.6 52 54.6 52 52 13 52 13 13"/><polygon class="cls-1" points="13 13 10.4 13 10.4 54.6 52 54.6 52 52 13 52 13 13"/><polygon class="cls-1" points="13 0 13 2.6 62.4 2.6 62.4 52 65 52 65 0 13 0"/><polygon class="cls-1" points="13 2.6 13 5.2 59.8 5.2 59.8 52 62.4 52 62.4 2.6 13 2.6"/><polygon class="cls-1" points="13 2.6 13 5.2 59.8 5.2 59.8 52 62.4 52 62.4 2.6 13 2.6"/><polygon class="cls-1" points="57.2 7.8 57.2 52 59.8 52 59.8 5.2 13 5.2 13 7.8 57.2 7.8"/><polygon class="cls-1" points="57.2 7.8 57.2 52 59.8 52 59.8 5.2 13 5.2 13 7.8 57.2 7.8"/><polygon class="cls-1" points="57.2 7.8 57.2 52 59.8 52 59.8 5.2 13 5.2 13 7.8 57.2 7.8"/><polygon class="cls-1" points="13 7.8 13 10.4 54.6 10.4 54.6 52 57.2 52 57.2 7.8 13 7.8"/><polygon class="cls-1" points="13 7.8 13 10.4 54.6 10.4 54.6 52 57.2 52 57.2 7.8 13 7.8"/><polygon class="cls-1" points="13 7.8 13 10.4 54.6 10.4 54.6 52 57.2 52 57.2 7.8 13 7.8"/><polygon class="cls-1" points="13 7.8 13 10.4 54.6 10.4 54.6 52 57.2 52 57.2 7.8 13 7.8"/><polygon class="cls-1" points="52 13 52 52 54.6 52 54.6 10.4 13 10.4 13 13 52 13"/><polygon class="cls-1" points="52 13 52 52 54.6 52 54.6 10.4 13 10.4 13 13 52 13"/><polygon class="cls-1" points="52 13 52 52 54.6 52 54.6 10.4 13 10.4 13 13 52 13"/><polygon class="cls-1" points="52 13 52 52 54.6 52 54.6 10.4 13 10.4 13 13 52 13"/><polygon class="cls-1" points="52 13 52 52 54.6 52 54.6 10.4 13 10.4 13 13 52 13"/><rect class="cls-2" x="13" y="13" width="39" height="39"/></svg>