<svg id="Layer_1" data-name="Layer 1" xmlns="http://www.w3.org/2000/svg" viewBox="0 0 338.92 110"><defs><style>.cls-1,.cls-2{fill:#fff;}.cls-1{opacity:0.3;}</style></defs><polygon class="cls-1" points="4.4 22 0 22 0 110 88 110 88 105.6 4.4 105.6 4.4 22"/><rect class="cls-1" x="88" y="101.2" width="4.4" height="4.4"/><rect class="cls-1" x="4.4" y="17.6" width="4.4" height="4.4"/><polygon class="cls-1" points="8.8 101.2 8.8 22 4.4 22 4.4 105.6 88 105.6 88 101.2 8.8 101.2"/><polygon class="cls-1" points="8.8 101.2 8.8 22 4.4 22 4.4 105.6 88 105.6 88 101.2 8.8 101.2"/><rect class="cls-1" x="8.8" y="13.2" width="4.4" height="4.4"/><rect class="cls-1" x="92.4" y="96.8" width="4.4" height="4.4"/><rect class="cls-1" x="8.8" y="17.6" width="4.4" height="4.4"/><rect class="cls-1" x="8.8" y="17.6" width="4.4" height="4.4"/><rect class="cls-1" x="88" y="96.8" width="4.4" height="4.4"/><rect class="cls-1" x="88" y="96.8" width="4.4" height="4.4"/><polygon class="cls-1" points="13.2 22 8.8 22 8.8 101.2 88 101.2 88 96.8 13.2 96.8 13.2 22"/><polygon class="cls-1" points="13.2 22 8.8 22 8.8 101.2 88 101.2 88 96.8 13.2 96.8 13.2 22"/><polygon class="cls-1" points="13.2 22 8.8 22 8.8 101.2 88 101.2 88 96.8 13.2 96.8 13.2 22"/><rect class="cls-1" x="13.2" y="8.8" width="4.4" height="4.4"/><rect class="cls-1" x="96.8" y="92.4" width="4.4" height="4.4"/><rect class="cls-1" x="13.2" y="13.2" width="4.4" height="4.4"/><rect class="cls-1" x="13.2" y="13.2" width="4.4" height="4.4"/><rect class="cls-1" x="92.4" y="92.4" width="4.4" height="4.4"/><rect class="cls-1" x="92.4" y="92.4" width="4.4" height="4.4"/><rect class="cls-1" x="88" y="92.4" width="4.4" height="4.4"/><rect class="cls-1" x="88" y="92.4" width="4.4" height="4.4"/><rect class="cls-1" x="88" y="92.4" width="4.4" height="4.4"/><rect class="cls-1" x="13.2" y="17.6" width="4.4" height="4.4"/><rect class="cls-1" x="13.2" y="17.6" width="4.4" height="4.4"/><rect class="cls-1" x="13.2" y="17.6" width="4.4" height="4.4"/><polygon class="cls-1" points="17.6 92.4 17.6 22 13.2 22 13.2 96.8 88 96.8 88 92.4 17.6 92.4"/><polygon class="cls-1" points="17.6 92.4 17.6 22 13.2 22 13.2 96.8 88 96.8 88 92.4 17.6 92.4"/><polygon class="cls-1" points="17.6 92.4 17.6 22 13.2 22 13.2 96.8 88 96.8 88 92.4 17.6 92.4"/><polygon class="cls-1" points="17.6 92.4 17.6 22 13.2 22 13.2 96.8 88 96.8 88 92.4 17.6 92.4"/><rect class="cls-1" x="17.6" y="4.4" width="4.4" height="4.4"/><rect class="cls-1" x="101.2" y="88" width="4.4" height="4.4"/><rect class="cls-1" x="96.8" y="88" width="4.4" height="4.4"/><rect class="cls-1" x="96.8" y="88" width="4.4" height="4.4"/><rect class="cls-1" x="17.6" y="8.8" width="4.4" height="4.4"/><rect class="cls-1" x="17.6" y="8.8" width="4.4" height="4.4"/><rect class="cls-1" x="17.6" y="13.2" width="4.4" height="4.4"/><rect class="cls-1" x="17.6" y="13.2" width="4.4" height="4.4"/><rect class="cls-1" x="17.6" y="13.2" width="4.4" height="4.4"/><rect class="cls-1" x="92.4" y="88" width="4.4" height="4.4"/><rect class="cls-1" x="92.4" y="88" width="4.4" height="4.4"/><rect class="cls-1" x="92.4" y="88" width="4.4" height="4.4"/><rect class="cls-1" x="88" y="88" width="4.4" height="4.4"/><rect class="cls-1" x="88" y="88" width="4.4" height="4.4"/><rect class="cls-1" x="88" y="88" width="4.4" height="4.4"/><rect class="cls-1" x="88" y="88" width="4.4" height="4.4"/><rect class="cls-1" x="17.6" y="17.6" width="4.4" height="4.4"/><rect class="cls-1" x="17.6" y="17.6" width="4.4" height="4.4"/><rect class="cls-1" x="17.6" y="17.6" width="4.4" height="4.4"/><rect class="cls-1" x="17.6" y="17.6" width="4.4" height="4.4"/><polygon class="cls-1" points="22 22 17.6 22 17.6 92.4 88 92.4 88 88 22 88 22 22"/><polygon class="cls-1" points="22 22 17.6 22 17.6 92.4 88 92.4 88 88 22 88 22 22"/><polygon class="cls-1" points="22 22 17.6 22 17.6 92.4 88 92.4 88 88 22 88 22 22"/><polygon class="cls-1" points="22 22 17.6 22 17.6 92.4 88 92.4 88 88 22 88 22 22"/><polygon class="cls-1" points="22 22 17.6 22 17.6 92.4 88 92.4 88 88 22 88 22 22"/><polygon class="cls-1" points="22 0 22 4.4 105.6 4.4 105.6 88 110 88 110 0 22 0"/><polygon class="cls-1" points="22 4.4 22 8.8 101.2 8.8 101.2 88 105.6 88 105.6 4.4 22 4.4"/><polygon class="cls-1" points="22 4.4 22 8.8 101.2 8.8 101.2 88 105.6 88 105.6 4.4 22 4.4"/><polygon class="cls-1" points="96.8 13.2 96.8 88 101.2 88 101.2 8.8 22 8.8 22 13.2 96.8 13.2"/><polygon class="cls-1" points="96.8 13.2 96.8 88 101.2 88 101.2 8.8 22 8.8 22 13.2 96.8 13.2"/><polygon class="cls-1" points="96.8 13.2 96.8 88 101.2 88 101.2 8.8 22 8.8 22 13.2 96.8 13.2"/><polygon class="cls-1" points="22 13.2 22 17.6 92.4 17.6 92.4 88 96.8 88 96.8 13.2 22 13.2"/><polygon class="cls-1" points="22 13.2 22 17.6 92.4 17.6 92.4 88 96.8 88 96.8 13.2 22 13.2"/><polygon class="cls-1" points="22 13.2 22 17.6 92.4 17.6 92.4 88 96.8 88 96.8 13.2 22 13.2"/><polygon class="cls-1" points="22 13.2 22 17.6 92.4 17.6 92.4 88 96.8 88 96.8 13.2 22 13.2"/><polygon class="cls-1" points="88 22 88 88 92.4 88 92.4 17.6 22 17.6 22 22 88 22"/><polygon class="cls-1" points="88 22 88 88 92.4 88 92.4 17.6 22 17.6 22 22 88 22"/><polygon class="cls-1" points="88 22 88 88 92.4 88 92.4 17.6 22 17.6 22 22 88 22"/><polygon class="cls-1" points="88 22 88 88 92.4 88 92.4 17.6 22 17.6 22 22 88 22"/><polygon class="cls-1" points="88 22 88 88 92.4 88 92.4 17.6 22 17.6 22 22 88 22"/><rect class="cls-2" x="22" y="22" width="66" height="66"/><path class="cls-2" d="M174.06,70.6v25H162.35V91.74A25.16,25.16,0,0,1,156,94.62a25.3,25.3,0,0,1-16.83-1,25.77,25.77,0,0,1-8-5.36,25.1,25.1,0,0,1-5.39-27.54,25.22,25.22,0,0,1,13.4-13.41,25,25,0,0,1,27.54,5.4,25.77,25.77,0,0,1,5.36,8,24.66,24.66,0,0,1,2,9.78ZM149,83.9a13,13,0,0,0,5.18-1,13.4,13.4,0,0,0,7.15-7.12,12.87,12.87,0,0,0,1-5.21,13.16,13.16,0,0,0-1-5.25,13.4,13.4,0,0,0-7.12-7.15,13.57,13.57,0,0,0-10.42,0A13.41,13.41,0,0,0,139.52,61a13.67,13.67,0,0,0-2.88,4.28,13.33,13.33,0,0,0-1,5.25,13.17,13.17,0,0,0,1,5.18A13.67,13.67,0,0,0,139.52,80a13.41,13.41,0,0,0,4.24,2.87A12.89,12.89,0,0,0,149,83.9Z" transform="translate(-5.05 -7.48)"/><path class="cls-2" d="M203.5,45.44a28.05,28.05,0,0,1,10.24,1.8,22.13,22.13,0,0,1,13,13,28.05,28.05,0,0,1,1.8,10.24,25.91,25.91,0,0,1-1.8,9.6,24.17,24.17,0,0,1-13,13.52,25.13,25.13,0,0,1-10.24,2,20.15,20.15,0,0,1-3.49-.28,14.88,14.88,0,0,1-3.16-.94,27.37,27.37,0,0,1-3.16-1.58c-1.08-.62-2.25-1.37-3.49-2.23v20.06H178.34V53.85h-6.62l5-8.41H190.2v3.45a19.93,19.93,0,0,1,3.49-2,16.92,16.92,0,0,1,3.16-1,19.36,19.36,0,0,1,3.16-.4C201.09,45.46,202.25,45.44,203.5,45.44Zm0,38.54a13.34,13.34,0,0,0,5.64-1.15,13,13,0,0,0,4.21-3.06A14,14,0,0,0,216,75.46a13.6,13.6,0,0,0,.93-4.93q0-6.33-3.56-9.88t-9.88-3.56a13.48,13.48,0,0,0-9.13,3.59,13,13,0,0,0-3,4.24,13.31,13.31,0,0,0-1.15,5.61,11.3,11.3,0,0,0,1.15,4.93,15.74,15.74,0,0,0,3,4.31,15.19,15.19,0,0,0,4.24,3.06A11.17,11.17,0,0,0,203.5,84Z" transform="translate(-5.05 -7.48)"/><path class="cls-2" d="M232.4,45.58V33.86h11.72V45.58Zm0,50.11V49.18h11.72V95.69Z" transform="translate(-5.05 -7.48)"/><path class="cls-2" d="M291.88,65.84c-1.56,0-3.12,0-4.68,0a1.87,1.87,0,0,1-2-1.13A13.25,13.25,0,1,0,272.82,84c5.75.17,9.88-2.4,12.55-7.41a1.57,1.57,0,0,1,1.57-1c3.35,0,6.71,0,10.07,0,1.1,0,1.28.43,1.06,1.4-2.11,9.44-10.83,17.41-20.5,18.88a25.36,25.36,0,1,1,20.36-31.72c.45,1.65.42,1.7-1.25,1.7Zm-40.25,4.91a22.89,22.89,0,0,0,0,2.87,22,22,0,0,0,26.83,18.63,21.45,21.45,0,0,0,15-12.22c.37-.77.28-1.07-.64-1-1.24.05-2.48.06-3.72,0a2,2,0,0,0-1.85,1c-3.91,5.46-9.18,8-15.93,7.21A16.57,16.57,0,1,1,285.77,59.7c1.44,3.19,4.21,3.1,7,2.87h.12c.77.07.95-.23.59-.9-.15-.28-.25-.59-.4-.87A22.06,22.06,0,0,0,270.62,49,21.71,21.71,0,0,0,251.63,70.75Z" transform="translate(-5.05 -7.48)"/><path class="cls-2" d="M301.26,95.69H313V73.26a14.52,14.52,0,0,1,2.59-.21A15.81,15.81,0,0,1,322,74.38,17,17,0,0,1,327.33,78a17.21,17.21,0,0,1,3.59,5.32,16.1,16.1,0,0,1,1.33,6.51,16.71,16.71,0,0,1-1.09,6h12.2a29.34,29.34,0,0,0,.61-6,27.75,27.75,0,0,0-1-7.37,28.88,28.88,0,0,0-2.73-6.65A28.14,28.14,0,0,0,336,70.14a31.79,31.79,0,0,0-5.5-4.5,30.36,30.36,0,0,0,10.92-23.51H329.74a18.41,18.41,0,0,1-1.3,6.9,19.5,19.5,0,0,1-8.88,10A18.3,18.3,0,0,1,313,61.11V33.72H301.26l-5,8.41h5Z" transform="translate(-5.05 -7.48)"/></svg>