<svg id="Layer_1" data-name="Layer 1" xmlns="http://www.w3.org/2000/svg" viewBox="0 0 338.92 110"><defs><style>.cls-1,.cls-2{fill:#2e7795;}.cls-1{opacity:0.3;}.cls-3{fill:#166065;}</style></defs><polygon class="cls-1" points="4.4 22 0 22 0 110 88 110 88 105.6 4.4 105.6 4.4 22"/><rect class="cls-1" x="88" y="101.2" width="4.4" height="4.4"/><rect class="cls-1" x="4.4" y="17.6" width="4.4" height="4.4"/><polygon class="cls-1" points="8.8 101.2 8.8 22 4.4 22 4.4 105.6 88 105.6 88 101.2 8.8 101.2"/><polygon class="cls-1" points="8.8 101.2 8.8 22 4.4 22 4.4 105.6 88 105.6 88 101.2 8.8 101.2"/><rect class="cls-1" x="8.8" y="13.2" width="4.4" height="4.4"/><rect class="cls-1" x="92.4" y="96.8" width="4.4" height="4.4"/><rect class="cls-1" x="8.8" y="17.6" width="4.4" height="4.4"/><rect class="cls-1" x="8.8" y="17.6" width="4.4" height="4.4"/><rect class="cls-1" x="88" y="96.8" width="4.4" height="4.4"/><rect class="cls-1" x="88" y="96.8" width="4.4" height="4.4"/><polygon class="cls-1" points="13.2 22 8.8 22 8.8 101.2 88 101.2 88 96.8 13.2 96.8 13.2 22"/><polygon class="cls-1" points="13.2 22 8.8 22 8.8 101.2 88 101.2 88 96.8 13.2 96.8 13.2 22"/><polygon class="cls-1" points="13.2 22 8.8 22 8.8 101.2 88 101.2 88 96.8 13.2 96.8 13.2 22"/><rect class="cls-1" x="13.2" y="8.8" width="4.4" height="4.4"/><rect class="cls-1" x="96.8" y="92.4" width="4.4" height="4.4"/><rect class="cls-1" x="13.2" y="13.2" width="4.4" height="4.4"/><rect class="cls-1" x="13.2" y="13.2" width="4.4" height="4.4"/><rect class="cls-1" x="92.4" y="92.4" width="4.4" height="4.4"/><rect class="cls-1" x="92.4" y="92.4" width="4.4" height="4.4"/><rect class="cls-1" x="88" y="92.4" width="4.4" height="4.4"/><rect class="cls-1" x="88" y="92.4" width="4.4" height="4.4"/><rect class="cls-1" x="88" y="92.4" width="4.4" height="4.4"/><rect class="cls-1" x="13.2" y="17.6" width="4.4" height="4.4"/><rect class="cls-1" x="13.2" y="17.6" width="4.4" height="4.4"/><rect class="cls-1" x="13.2" y="17.6" width="4.4" height="4.4"/><polygon class="cls-1" points="17.6 92.4 17.6 22 13.2 22 13.2 96.8 88 96.8 88 92.4 17.6 92.4"/><polygon class="cls-1" points="17.6 92.4 17.6 22 13.2 22 13.2 96.8 88 96.8 88 92.4 17.6 92.4"/><polygon class="cls-1" points="17.6 92.4 17.6 22 13.2 22 13.2 96.8 88 96.8 88 92.4 17.6 92.4"/><polygon class="cls-1" points="17.6 92.4 17.6 22 13.2 22 13.2 96.8 88 96.8 88 92.4 17.6 92.4"/><rect class="cls-1" x="17.6" y="4.4" width="4.4" height="4.4"/><rect class="cls-1" x="101.2" y="88" width="4.4" height="4.4"/><rect class="cls-1" x="96.8" y="88" width="4.4" height="4.4"/><rect class="cls-1" x="96.8" y="88" width="4.4" height="4.4"/><rect class="cls-1" x="17.6" y="8.8" width="4.4" height="4.4"/><rect class="cls-1" x="17.6" y="8.8" width="4.4" height="4.4"/><rect class="cls-1" x="17.6" y="13.2" width="4.4" height="4.4"/><rect class="cls-1" x="17.6" y="13.2" width="4.4" height="4.4"/><rect class="cls-1" x="17.6" y="13.2" width="4.4" height="4.4"/><rect class="cls-1" x="92.4" y="88" width="4.4" height="4.4"/><rect class="cls-1" x="92.4" y="88" width="4.4" height="4.4"/><rect class="cls-1" x="92.4" y="88" width="4.4" height="4.4"/><rect class="cls-1" x="88" y="88" width="4.4" height="4.4"/><rect class="cls-1" x="88" y="88" width="4.4" height="4.4"/><rect class="cls-1" x="88" y="88" width="4.4" height="4.4"/><rect class="cls-1" x="88" y="88" width="4.4" height="4.4"/><rect class="cls-1" x="17.6" y="17.6" width="4.4" height="4.4"/><rect class="cls-1" x="17.6" y="17.6" width="4.4" height="4.4"/><rect class="cls-1" x="17.6" y="17.6" width="4.4" height="4.4"/><rect class="cls-1" x="17.6" y="17.6" width="4.4" height="4.4"/><polygon class="cls-1" points="22 22 17.6 22 17.6 92.4 88 92.4 88 88 22 88 22 22"/><polygon class="cls-1" points="22 22 17.6 22 17.6 92.4 88 92.4 88 88 22 88 22 22"/><polygon class="cls-1" points="22 22 17.6 22 17.6 92.4 88 92.4 88 88 22 88 22 22"/><polygon class="cls-1" points="22 22 17.6 22 17.6 92.4 88 92.4 88 88 22 88 22 22"/><polygon class="cls-1" points="22 22 17.6 22 17.6 92.4 88 92.4 88 88 22 88 22 22"/><polygon class="cls-1" points="22 0 22 4.4 105.6 4.4 105.6 88 110 88 110 0 22 0"/><polygon class="cls-1" points="22 4.4 22 8.8 101.2 8.8 101.2 88 105.6 88 105.6 4.4 22 4.4"/><polygon class="cls-1" points="22 4.4 22 8.8 101.2 8.8 101.2 88 105.6 88 105.6 4.4 22 4.4"/><polygon class="cls-1" points="96.8 13.2 96.8 88 101.2 88 101.2 8.8 22 8.8 22 13.2 96.8 13.2"/><polygon class="cls-1" points="96.8 13.2 96.8 88 101.2 88 101.2 8.8 22 8.8 22 13.2 96.8 13.2"/><polygon class="cls-1" points="96.8 13.2 96.8 88 101.2 88 101.2 8.8 22 8.8 22 13.2 96.8 13.2"/><polygon class="cls-1" points="22 13.2 22 17.6 92.4 17.6 92.4 88 96.8 88 96.8 13.2 22 13.2"/><polygon class="cls-1" points="22 13.2 22 17.6 92.4 17.6 92.4 88 96.8 88 96.8 13.2 22 13.2"/><polygon class="cls-1" points="22 13.2 22 17.6 92.4 17.6 92.4 88 96.8 88 96.8 13.2 22 13.2"/><polygon class="cls-1" points="22 13.2 22 17.6 92.4 17.6 92.4 88 96.8 88 96.8 13.2 22 13.2"/><polygon class="cls-1" points="88 22 88 88 92.4 88 92.4 17.6 22 17.6 22 22 88 22"/><polygon class="cls-1" points="88 22 88 88 92.4 88 92.4 17.6 22 17.6 22 22 88 22"/><polygon class="cls-1" points="88 22 88 88 92.4 88 92.4 17.6 22 17.6 22 22 88 22"/><polygon class="cls-1" points="88 22 88 88 92.4 88 92.4 17.6 22 17.6 22 22 88 22"/><polygon class="cls-1" points="88 22 88 88 92.4 88 92.4 17.6 22 17.6 22 22 88 22"/><rect class="cls-2" x="22" y="22" width="66" height="66"/><path class="cls-2" d="M174.46,70.6v25H162.74V91.74a24.93,24.93,0,0,1-6.32,2.88,25.3,25.3,0,0,1-16.83-1,25.65,25.65,0,0,1-8-5.36,24.9,24.9,0,0,1-5.4-8,25.26,25.26,0,0,1,0-19.56,25.28,25.28,0,0,1,13.41-13.41,25.26,25.26,0,0,1,19.56,0,25.12,25.12,0,0,1,8,5.4,25.74,25.74,0,0,1,5.35,8,24.5,24.5,0,0,1,2,9.78ZM149.37,83.9a13,13,0,0,0,5.18-1A13.43,13.43,0,0,0,158.82,80a13.6,13.6,0,0,0,2.88-4.25,13,13,0,0,0,1-5.21,13.33,13.33,0,0,0-1-5.25,13.49,13.49,0,0,0-7.12-7.15,13.57,13.57,0,0,0-10.42,0A13.49,13.49,0,0,0,137,65.28a13.16,13.16,0,0,0-1,5.25,13,13,0,0,0,1,5.18,13.49,13.49,0,0,0,7.12,7.15A12.86,12.86,0,0,0,149.37,83.9Z" transform="translate(-5.44 -7.48)"/><path class="cls-2" d="M203.9,45.44a28.09,28.09,0,0,1,10.24,1.8,22.13,22.13,0,0,1,13.05,13A28.05,28.05,0,0,1,229,70.53a25.91,25.91,0,0,1-1.8,9.6,24.5,24.5,0,0,1-5.1,8,24.85,24.85,0,0,1-8,5.5,25.17,25.17,0,0,1-10.24,2,20.15,20.15,0,0,1-3.49-.28,14.88,14.88,0,0,1-3.16-.94,27.49,27.49,0,0,1-3.17-1.58c-1.08-.62-2.24-1.37-3.49-2.23v20.06H178.73V53.85h-6.61l5-8.41h13.44v3.45a20.29,20.29,0,0,1,3.49-2,17,17,0,0,1,3.17-1,19.36,19.36,0,0,1,3.16-.4C201.49,45.46,202.65,45.44,203.9,45.44Zm0,38.54a13.37,13.37,0,0,0,5.64-1.15,13.06,13.06,0,0,0,4.21-3.06,14,14,0,0,0,2.66-4.31,13.6,13.6,0,0,0,.93-4.93q0-6.33-3.56-9.88t-9.88-3.56a13.48,13.48,0,0,0-9.13,3.59,13,13,0,0,0-3,4.24,13.31,13.31,0,0,0-1.16,5.61,11.31,11.31,0,0,0,1.16,4.93,15.74,15.74,0,0,0,3,4.31A15.19,15.19,0,0,0,199,82.83,11.17,11.17,0,0,0,203.9,84Z" transform="translate(-5.44 -7.48)"/><path class="cls-2" d="M232.8,45.58V33.86h11.72V45.58Zm0,50.11V49.18h11.72V95.69Z" transform="translate(-5.44 -7.48)"/><path class="cls-3" d="M298.29,75.56A25,25,0,0,1,289.7,90a25.63,25.63,0,0,1-7.37,4.24,25.14,25.14,0,0,1-18.47-.43,25.1,25.1,0,0,1-13.41-13.41,25.32,25.32,0,0,1,0-19.63,25.19,25.19,0,0,1,13.41-13.41,25.27,25.27,0,0,1,18.47-.43,25.66,25.66,0,0,1,7.37,4.25,24.7,24.7,0,0,1,5.5,6.36,24.2,24.2,0,0,1,3.09,8H286.07a13.4,13.4,0,0,0-4.85-6,13,13,0,0,0-7.59-2.33,13.25,13.25,0,0,0-5.24,1,13.39,13.39,0,0,0-4.28,2.88,13.61,13.61,0,0,0-2.88,4.24,13.06,13.06,0,0,0-1,5.21,13.33,13.33,0,0,0,1,5.25,13.56,13.56,0,0,0,2.88,4.28,13.37,13.37,0,0,0,4.28,2.87,13.08,13.08,0,0,0,5.24,1,12.92,12.92,0,0,0,7.59-2.34,13.32,13.32,0,0,0,4.85-6.08Z" transform="translate(-5.44 -7.48)"/><path class="cls-2" d="M301.66,95.69h11.72V73.26a14.52,14.52,0,0,1,2.59-.21,15.81,15.81,0,0,1,6.47,1.33,17,17,0,0,1,8.88,8.91,16.27,16.27,0,0,1,1.33,6.51,16.94,16.94,0,0,1-1.09,6h12.2a29.34,29.34,0,0,0,.61-6,28.17,28.17,0,0,0-1-7.37,28.88,28.88,0,0,0-2.73-6.65,27.82,27.82,0,0,0-4.25-5.64,31.05,31.05,0,0,0-5.5-4.5,30.33,30.33,0,0,0,10.93-23.51H330.13a18.4,18.4,0,0,1-1.29,6.9A19.5,19.5,0,0,1,320,59a18.3,18.3,0,0,1-6.58,2.08V33.72H301.66l-5,8.41h5Z" transform="translate(-5.44 -7.48)"/></svg>